<svg xmlns="http://www.w3.org/2000/svg" viewBox="0 0 72.29 72.29"><defs><style>.cls-1{fill:none;stroke:#fff;stroke-miterlimit:10;}.cls-2{fill:#fff;fill-rule:evenodd;}</style></defs><title>manufacturing</title><g id="Layer_2" data-name="Layer 2"><g id="Layer_1-2" data-name="Layer 1"><circle class="cls-1" cx="36.15" cy="36.15" r="35.65"/><path class="cls-2" d="M57.48,34.76a3,3,0,0,0-.15.81.36.36,0,0,1-.17.24,3.82,3.82,0,0,0-.89.09,7.59,7.59,0,0,1-.84.06.51.51,0,0,0-.54.37,4.75,4.75,0,0,1-.77,1.22.47.47,0,0,0-.08.64l.58,1.69,0,.1a19.75,19.75,0,0,0-1.71,1.2c-.32.29-.58.2-.87-.09s-.67-.54-1-.83a.46.46,0,0,0-.67-.07,9.47,9.47,0,0,1-1.5.27.35.35,0,0,0-.33.24l-.79,1.67c-.27.17-.52-.07-.79,0l-.24,0a1.25,1.25,0,0,0-.57-.11,4,4,0,0,0-.67-.14.45.45,0,0,1-.49-.49l-.08-.89c0-.17,0-.35,0-.52s0-.37-.2-.48c-.38-.19-.74-.42-1.12-.63l-.14-.1c-.17-.13-.28-.39-.56-.29a5.26,5.26,0,0,0-1,.38,4.54,4.54,0,0,0-.89.28L40,38a4,4,0,0,0-.54-.77l-.05-.16.33-.4a.41.41,0,0,0,.2-.23,4.57,4.57,0,0,1,.48-.54.83.83,0,0,0,.16-1.19c-.06-.41-.13-.82-.18-1.24a.32.32,0,0,0-.2-.27l-1.75-.83-.06-.17.05-.33a.13.13,0,0,0,0-.16.55.55,0,0,0,.05-.33.15.15,0,0,0,0-.17l.06-.4a4,4,0,0,0,.15-.65c0-.33.15-.52.49-.53l.24,0a.13.13,0,0,0,.16,0l.49,0,.56,0a.43.43,0,0,0,.45-.25A6.39,6.39,0,0,1,42,27.88a.36.36,0,0,0,.08-.41c-.16-.41-.31-.83-.46-1.25,0-.26-.37-.53,0-.79l.15-.11,1.13-.76c.69-.46.69-.46,1.34,0l.68.55a.45.45,0,0,0,.25.21c.31.23.55,0,.82-.1s.82-.14,1.24-.18a.42.42,0,0,0,.34-.29c.22-.48.46-.94.68-1.42.1-.22.2-.3.46-.24.52.12,1.06.18,1.59.27l.67.13.08.13a1.1,1.1,0,0,0,0,.48.14.14,0,0,0,0,.16l0,.24a6.22,6.22,0,0,1,0,.69.69.69,0,0,0,.47.75,3.19,3.19,0,0,1,.92.58.89.89,0,0,0,1.22.1l.61-.19c.74-.26.74-.26,1.19.37.06.09.13.16.2.25a5.79,5.79,0,0,0,.61.88c.21.27.31.54,0,.81a.61.61,0,0,0-.25.31c-.22.25-.44.51-.67.75a.45.45,0,0,0-.06.64,11,11,0,0,1,.24,1.27c0,.4.18.63.58.69a3.72,3.72,0,0,0,.9.45l.56.29-.07.63A3.8,3.8,0,0,0,57.48,34.76ZM43.6,29.64a.15.15,0,0,0-.09.14,4.21,4.21,0,0,0-.8,2,.14.14,0,0,0,0,.16l0,.24,0,.24a1.49,1.49,0,0,0,0,.81,1.35,1.35,0,0,0,.09.65,2,2,0,0,0,.28.9,5,5,0,0,0,3,3,2,2,0,0,0,.9.28,3.32,3.32,0,0,0,1.55.1l.16,0a.6.6,0,0,0,.41-.06,3.88,3.88,0,0,0,1.87-.74.38.38,0,0,0,.25-.16,2.79,2.79,0,0,0,.84-.72.58.58,0,0,0,.21-.26,4.59,4.59,0,0,0,1.13-2.28.13.13,0,0,0,0-.16.49.49,0,0,0,.05-.33.21.21,0,0,0,0-.24,5.06,5.06,0,0,0-1.39-4.09,1.15,1.15,0,0,0-.49-.48,5,5,0,0,0-4-1.29.21.21,0,0,0-.24,0,.76.76,0,0,0-.41.07,4.64,4.64,0,0,0-2.44,1.22l-.17.15A2.71,2.71,0,0,0,43.6,29.64Z"/><path class="cls-2" d="M14.59,38.42l0-.25,0-.16a.42.42,0,0,0,.08-.32l.5-2h1.7c.5.22.55-.18.66-.49a15.15,15.15,0,0,1,1.12-1.76c.11-.14.14-.26,0-.38l-.95-1.68c.06-.1.21-.1.25-.23a2.86,2.86,0,0,0,.65-.57l.17-.15a5.33,5.33,0,0,0,.87-.76,0,0,0,0,0,0,0c.15-.09.25,0,.36.08.36.28.75.54,1.08.84a.56.56,0,0,0,.89,0l.16-.08A16.57,16.57,0,0,1,24,29.75a.28.28,0,0,0,.22-.29c0-.51.09-1,.13-1.53,0-.3.13-.45.44-.44a1.09,1.09,0,0,0,.57-.06,8.91,8.91,0,0,0,1.55-.14H27c.3.12.19.46.34.66.11.39.22.78.32,1.17,0,.16.1.27.29.29l1,.11a3.43,3.43,0,0,0,.9.23c.27.07.54.4.82.11s.69-.78,1-1.17c.16-.17.32-.33.57-.15a17.3,17.3,0,0,0,1.79,1.06.4.4,0,0,0,.25.15l0,.23-.05.17c-.09.08-.09.2-.12.31-.13.35-.24.72-.4,1.06s-.08.46.2.59a6.33,6.33,0,0,1,1,1.09,1.2,1.2,0,0,0,1.75.59l.07,0a2.33,2.33,0,0,0,.73-.16c.26-.05.26.19.36.32a17.34,17.34,0,0,0,.75,1.71l.06.16a.38.38,0,0,1-.11.57l-.18.11c-.36.24-.71.48-1.08.71a.41.41,0,0,0-.21.5,10.12,10.12,0,0,1,.2,1.6c.06,1.06.06,1.06,1.1,1.4a2,2,0,0,0,.32.16c.41.12.66.32.48.79a9.63,9.63,0,0,0-.39,1.71c-.14.17,0,.56-.4.52l-1.7-.08c-.18,0-.23.08-.29.21A10.38,10.38,0,0,1,35.17,46a.28.28,0,0,0,0,.36c.25.4.49.8.73,1.21s.28.57-.08.81-.78.66-1.17,1c-.57.5-.57.51-1.17.14a3.08,3.08,0,0,0-.67-.52c-.21-.13-.31-.47-.65-.3l-1.46.73a6.25,6.25,0,0,1-.65.19c-.29.05-.38.21-.4.5,0,.48-.11,1-.13,1.44,0,.26-.12.36-.37.34a.77.77,0,0,0-.23.05,2.34,2.34,0,0,0-.72.06,4.14,4.14,0,0,0-.91.08c-.21-.06-.45.11-.65-.06a.27.27,0,0,0-.08-.24,15.36,15.36,0,0,0-.43-1.55c0-.17-.15-.2-.3-.21a9.45,9.45,0,0,1-2.28-.5.37.37,0,0,0-.46.12c-.35.41-.72.8-1.07,1.21a.27.27,0,0,1-.41.06c-.34-.21-.7-.4-1.05-.59a4.48,4.48,0,0,0-.9-.54c-.3-.14-.12-.37-.1-.57.18-.48.35-1,.53-1.44a.28.28,0,0,0-.1-.35,9.77,9.77,0,0,1-1.6-1.82.27.27,0,0,0-.33-.15l-1.81.42-.17-.1A16.3,16.3,0,0,0,15.26,44L15,43.45c0-.18.15-.24.27-.33l1.28-.87c.13-.09.22-.17.17-.36a8.72,8.72,0,0,1-.23-2.37c0-.24-.08-.36-.31-.38ZM25.13,32,25,32l-.25.07a2.75,2.75,0,0,0-.88.31,3.05,3.05,0,0,0-.87.4,7.53,7.53,0,0,0-3.29,3.65,4.83,4.83,0,0,0-.55,1.71A2.45,2.45,0,0,0,19,39a3.23,3.23,0,0,0,0,.89v.25c0,.08,0,.16,0,.24a.43.43,0,0,0,0,.33,2.83,2.83,0,0,0,.2,1.05.28.28,0,0,0,.07.25,3.19,3.19,0,0,0,.4,1.06.43.43,0,0,0,.12.26,7.32,7.32,0,0,0,3.07,3.26,1.06,1.06,0,0,0,.42.23,3.58,3.58,0,0,0,1,.43.82.82,0,0,0,.4.12,2.06,2.06,0,0,0,.81.18,5.67,5.67,0,0,0,2.61,0,1.7,1.7,0,0,0,.81-.19,4.66,4.66,0,0,0,1.81-.72A7.41,7.41,0,0,0,34,43.29a5.39,5.39,0,0,0,.63-1.7,1.3,1.3,0,0,0,.12-.58,3.47,3.47,0,0,0,.11-1.14,2.55,2.55,0,0,0,0-.89.51.51,0,0,0,0-.32.13.13,0,0,0,0-.16,3.2,3.2,0,0,0-.29-1.23,7.56,7.56,0,0,0-4.56-4.9,5.36,5.36,0,0,0-2-.5,5.53,5.53,0,0,0-2.44.05Z"/><path class="cls-2" d="M49.12,29.74l.74.37.4.34a3.85,3.85,0,0,1,.93,1.71q0,.44,0,.89l-.13.64a6.18,6.18,0,0,1-.54,1.06l-.23.25-.57.48-.32.18a3.34,3.34,0,0,1-2.35.17l-.16,0a4.15,4.15,0,0,1-1.42-1,4.39,4.39,0,0,1-.65-1.46.29.29,0,0,0,0-.25c0-.3,0-.59.06-.89l.26-.81.1-.2.55-.7.24-.22a4.27,4.27,0,0,1,1.7-.67l.88,0Z"/><path class="cls-2" d="M25.56,33.7a8.93,8.93,0,0,1,2.6,0l.82.23a.18.18,0,0,0,.18,0l.69.35.34.19.49.34.07.05.77.73,0,0,.37.44.4.64.28.58.31.88a6.18,6.18,0,0,1-3,7,11.53,11.53,0,0,1-1.69.61l-.91.13-.81,0-.89-.13a10.68,10.68,0,0,1-1.71-.66L23,44.53l-.48-.43a13.76,13.76,0,0,1-1-1.38.66.66,0,0,0-.16-.33,6.71,6.71,0,0,1-.41-4.22l.31-.9a6.6,6.6,0,0,1,2.73-3A12.17,12.17,0,0,1,25.56,33.7ZM30.28,40a1,1,0,0,0,0-.65l0-.24a.27.27,0,0,0-.05-.25.89.89,0,0,0-.16-.49.3.3,0,0,0-.11-.23,3.2,3.2,0,0,0-2.65-1.83,1.37,1.37,0,0,0-.57,0,.25.25,0,0,0-.25,0,3.16,3.16,0,0,0-2.58,1.89,3,3,0,0,0-.1,2.68,1.34,1.34,0,0,0,.33.65,1.91,1.91,0,0,0,.65.73.27.27,0,0,0,.23.18,2.61,2.61,0,0,0,1.47.57.29.29,0,0,0,.25,0,2.88,2.88,0,0,0,2.2-.7l.07,0a1.77,1.77,0,0,0,.75-.79.39.39,0,0,0,.17-.29.57.57,0,0,0,.19-.38l0-.16A1.35,1.35,0,0,0,30.28,40Z"/></g></g></svg>
