<svg xmlns="http://www.w3.org/2000/svg" viewBox="0 0 72.29 72.29"><defs><style>.cls-1{fill:none;stroke:#fff;stroke-miterlimit:10;}.cls-2{fill:#fff;}</style></defs><title>partnership</title><g id="Layer_2" data-name="Layer 2"><g id="Layer_1-2" data-name="Layer 1"><circle class="cls-1" cx="36.15" cy="36.15" r="35.65"/><path class="cls-2" d="M26.74,33.63a1.86,1.86,0,0,1,.75-1.54,75.59,75.59,0,0,1,9.09-6.2,5.43,5.43,0,0,1,5.82.06c.68.41,1.36.82,2,1.28a3.84,3.84,0,0,0,2.11.82,2.57,2.57,0,0,0,1.66-.53c.26-.19.35-.12.49.14q2.25,4.32,4.52,8.63c.3.57.64,1.13,1,1.69A1.45,1.45,0,0,1,53.94,40Q52.08,42,50.19,43.91c-.39.4-.44.4-.81,0L38.73,32.15c-1.09-1.21-1.31-1.23-2.73-.47-2,1.1-4.11,2.17-6.17,3.25a3.12,3.12,0,0,1-1.7.42A1.52,1.52,0,0,1,26.74,33.63Z"/><path class="cls-2" d="M59.87,36.82a.76.76,0,0,1-.41.76A23.62,23.62,0,0,1,57,38.88c-.73.31-1,.16-1.37-.56-.8-1.5-1.58-3-2.36-4.53l-3.4-6.58c-.11-.22-.2-.44-.3-.67a.76.76,0,0,1,.28-1,14.09,14.09,0,0,1,2.79-1.47.79.79,0,0,1,1,.38c.24.4.45.8.67,1.21l5.29,10.23A1.69,1.69,0,0,1,59.87,36.82Z"/><path class="cls-2" d="M12.42,37.11a1,1,0,0,1,.1-.53L17,24.76c.34-.9.73-1.08,1.64-.76.63.22,1.26.42,1.87.66.78.3.94.61.65,1.4-.63,1.73-1.28,3.46-1.92,5.19-.84,2.27-1.69,4.54-2.52,6.81a2.45,2.45,0,0,1-.8,1c-.12.1-.21,0-.32,0-.83-.3-1.65-.61-2.48-.9A.93.93,0,0,1,12.42,37.11Z"/><path class="cls-2" d="M17.89,38.53a2.13,2.13,0,0,1,.22-.91l4.06-10.76a2.47,2.47,0,0,1,.41-.8,1,1,0,0,1,1.62,0,2.55,2.55,0,0,0,2.23.94,4.23,4.23,0,0,0,1.47-.48c.91-.46,1.81-1,2.73-1.4A4.11,4.11,0,0,1,34,24.83l.35.17c.22.12.54.25.51.47s-.35.38-.61.49a1.21,1.21,0,0,1-.68.06,4.4,4.4,0,0,0-2.94.44c-.68.34-1.34.73-2,1.08a4.58,4.58,0,0,1-3.58.51,3.76,3.76,0,0,1-1.29-.69c-.29-.24-.43-.22-.57.16q-1.63,4.44-3.3,8.87c-.19.5-.4,1-.6,1.48A1,1,0,0,0,19.52,39c.9,1,1.78,1.95,2.68,2.9.22.23.22.36,0,.59-.61.62-.6.63-1.18,0l-2.76-3.13A1.05,1.05,0,0,1,17.89,38.53Z"/><path class="cls-2" d="M50.54,45a2.23,2.23,0,0,1-.82,2.65,3.14,3.14,0,0,1-2.18.54.69.69,0,0,0-.75.41A12.55,12.55,0,0,1,46,49.81a2.14,2.14,0,0,1-2.83.89c-.29-.09-.4-.06-.48.24a4.92,4.92,0,0,1-.37,1A2.37,2.37,0,0,1,40,53.28c-.35,0-.69,0-1,0-.16,0-.26,0-.17-.22.28-.63.47-1.08,1.28-.92a.87.87,0,0,0,.72-.24,1.94,1.94,0,0,0,.32-2.72c-1-1.15-1.95-2.26-2.93-3.38a1.6,1.6,0,0,1-.21-1.3c.06-.13.17-.1.26-.07a1.4,1.4,0,0,1,.78.42c1.1,1.25,2.22,2.48,3.34,3.71a6.54,6.54,0,0,0,.64.64,1.46,1.46,0,0,0,1.75.26,1.9,1.9,0,0,0,.83-1.87A2.36,2.36,0,0,0,45,46.41C44,45.21,42.9,44,41.8,42.83a1.05,1.05,0,0,1-.2-1.23c.15-.36.49-.06.74,0,.09,0,.18.13.26.22L46.33,46a6.76,6.76,0,0,0,.55.56,1.42,1.42,0,0,0,2.36-.21,5.6,5.6,0,0,1,1.16-1.22Z"/><path class="cls-2" d="M30.92,52.11a1.8,1.8,0,0,1-1.67-1.94,2,2,0,0,1,.67-1.46c1.16-1.07,2.31-2.15,3.49-3.19A1.66,1.66,0,0,1,36,46.1a1.86,1.86,0,0,1-.51,2.29,32.9,32.9,0,0,1-3.63,3.35A1.43,1.43,0,0,1,30.92,52.11Z"/><path class="cls-2" d="M27.6,49.15a1.9,1.9,0,0,1-1.09-3.21,30.11,30.11,0,0,1,3-2.74,1.72,1.72,0,0,1,2.51.6,2,2,0,0,1-.54,2.34,22.51,22.51,0,0,1-2.77,2.56A1.64,1.64,0,0,1,27.6,49.15Z"/><path class="cls-2" d="M35.42,54.38a1.74,1.74,0,0,1-1.64-1,1.47,1.47,0,0,1,0-1.67A10.92,10.92,0,0,1,36,49.31a1.33,1.33,0,0,1,1.93.13,2.43,2.43,0,0,1,.61,1.13,1,1,0,0,1-.08.66,7.63,7.63,0,0,1-2.14,2.69A1.52,1.52,0,0,1,35.42,54.38Z"/><path class="cls-2" d="M26.16,44.37a2.73,2.73,0,0,1-2.59,2.43,1.74,1.74,0,0,1-1.41-1.54,2,2,0,0,1,.9-2,4.51,4.51,0,0,0,.5-.35,1.33,1.33,0,0,1,1.68-.07A1.67,1.67,0,0,1,26.16,44.37Z"/></g></g></svg>