<svg xmlns="http://www.w3.org/2000/svg" viewBox="0 0 72.29 72.29"><defs><style>.cls-1{fill:none;stroke:#fff;stroke-miterlimit:10;}.cls-2{fill:#f9f9f9;}.cls-3{fill:#f2f1f1;}.cls-4{fill:#e9e8e7;}.cls-5{fill:#fbfbfb;}.cls-6{fill:#ebeae9;}.cls-7{fill:#fafafa;}</style></defs><title>qa</title><g id="Layer_2" data-name="Layer 2"><g id="Layer_1-2" data-name="Layer 1"><circle class="cls-1" cx="36.15" cy="36.15" r="35.65"/><path class="cls-2" d="M36.6,53.55c-5.4,0-10.59,0-15.79,0a2.36,2.36,0,0,1-2.54-2.44c-.09-1.42-.05-2.85-.05-4.28q0-12.34,0-24.68c0-3.27.61-3.86,3.91-3.86.34,0,.69,0,1,0,1.14-.07,2.1-.24,2.21,1.55A2.56,2.56,0,0,0,28.06,22c2.86,0,5.71.06,8.57,0a2.87,2.87,0,0,0,2.94-2.77c.1-.87.4-1,1.15-1,5.26-.18,5.82.34,5.82,5.51,0,4.86-.1,9.71,0,14.56.07,2.22-1.47,1.37-2.41,1.52-1.4.22-.72-1-.73-1.49q-.1-5.91,0-11.82c0-1.07-.3-1.34-1.34-1.33q-9.68.07-19.36,0c-1.08,0-1.33.32-1.33,1.36q.06,11.31,0,22.62c0,1.13.4,1.29,1.38,1.28,3.71-.05,7.43.07,11.14-.06,1.55-.05,2.36.31,2.33,2A4.83,4.83,0,0,0,36.6,53.55Z"/><path class="cls-2" d="M37.83,49.83A8.12,8.12,0,1,1,46,58,8.17,8.17,0,0,1,37.83,49.83Zm4.25-.66c-.35.19-1,.21-1,.74-.28,2.25,2,2.45,3,3.68a1.39,1.39,0,0,0,2.23.13l.12-.12,4.63-5.23c.54-.62.81-1.27.1-1.94s-1.45-.32-2,.33c-1,1.05-2,2.07-2.81,3.2s-1.47,1.39-2.48.24A2.7,2.7,0,0,0,42.08,49.16Z"/><path class="cls-3" d="M32.27,20.9c-1.19,0-2.39,0-3.58,0S26.5,20.34,26.45,19a1.81,1.81,0,0,1,2.08-2,1.58,1.58,0,0,0,1.81-1.54A1.89,1.89,0,0,1,32.45,14a1.9,1.9,0,0,1,2,1.67c.13,1.07.66,1.42,1.69,1.44s2.15.46,2.14,1.88S37.25,20.84,36,20.89,33.52,20.9,32.27,20.9Zm0-5.74a1,1,0,0,0-.85,1,.84.84,0,0,0,.85.85.85.85,0,0,0,1-.86C33.36,15.58,32.94,15.28,32.32,15.16Z"/><path class="cls-4" d="M32.26,34c2.39,0,4.78,0,7.17,0,.74,0,1.44,0,1.49,1s-.68,1-1.41,1q-7.43,0-14.86,0c-.78,0-1.42-.17-1.4-1.07S24,34,24.74,34Z"/><path class="cls-5" d="M32.06,30.25H24.71c-.71,0-1.46,0-1.46-.95s.69-.9,1.34-.9h15c.67,0,1.3.09,1.28,1s-.68.88-1.34.88Z"/><path class="cls-6" d="M30,46.69c-1.83,0-3.65,0-5.48,0-.7,0-1.3-.12-1.3-1s.59-1,1.29-1H35.14c.74,0,1.42.14,1.38,1.09s-.69.9-1.36.9Z"/><path class="cls-7" d="M30.71,39.12c1.94,0,3.88,0,5.81,0,.73,0,1.26.17,1.24,1s-.62.85-1.22.85H24.41c-.65,0-1.15-.18-1.16-.93s.47-.93,1.14-.93C26.5,39.13,28.6,39.12,30.71,39.12Z"/></g></g></svg>