<?xml version="1.0" encoding="utf-8"?>
<!-- Generator: Adobe Illustrator 21.1.0, SVG Export Plug-In . SVG Version: 6.00 Build 0)  -->
<svg version="1.1" id="Layer_1" xmlns="http://www.w3.org/2000/svg" xmlns:xlink="http://www.w3.org/1999/xlink" x="0px" y="0px"
	 viewBox="0 0 72.3 72.3" style="enable-background:new 0 0 72.3 72.3;" xml:space="preserve">
<style type="text/css">
	.st0{fill:none;stroke:#FFFFFF;stroke-miterlimit:10;}
	.st1{fill:#FFFFFF;}
	.st2{fill:none;stroke:#FFFFFF;stroke-width:1.5;stroke-linecap:round;stroke-miterlimit:10;}
</style>
<title>rd</title>
<g id="Layer_2">
	<g id="Layer_1-2">
		<circle class="st0" cx="36.2" cy="36.2" r="35.7"/>
		<path class="st1" d="M51.9,27c0,4.7-2.1,9.1-5.6,12.1c-1.6,1.7-2.5,3.8-2.6,6.1c0,0-4.8-0.1-7.5-0.1s-8.1-0.1-8.1-0.1
			c-0.2-3.2-1.2-5.3-2-5.9C19.4,33.7,18.4,23.7,24,17s15.5-7.7,22.2-2.1C49.8,17.9,51.9,22.3,51.9,27z"/>
		<line class="st0" x1="28.6" y1="49.7" x2="43.8" y2="49.7"/>
		<line class="st0" x1="28" y1="53.9" x2="44.3" y2="53.9"/>
		<line class="st0" x1="32.5" y1="58.6" x2="39.5" y2="58.6"/>
		<path class="st2" d="M25.4,28.3c0,0-1.3-8,5.2-10.4"/>
	</g>
</g>
</svg>
